PathFileType	4	(X/Y/Z)	C:\Users\chris\Documents\GitHub\baseballds\vids\pitch5_Sports2D\pitch5_Sports2D_m_person06.trc
DataRate	CameraRate	NumFrames	NumMarkers	Units	OrigDataRate	OrigDataStartFrame	OrigNumFrames
30	30	11	22	m	30	74	149
Frame#	Time	Hip			RHip			RKnee			RAnkle			RBigToe			RSmallToe			RHeel			LHip			LKnee			LAnkle			LBigToe			LSmallToe			LHeel			Neck			Head			Nose			RShoulder			RElbow			RWrist			LShoulder			LElbow			LWrist		
		X1	Y1	Z1	X2	Y2	Z2	X3	Y3	Z3	X4	Y4	Z4	X5	Y5	Z5	X6	Y6	Z6	X7	Y7	Z7	X8	Y8	Z8	X9	Y9	Z9	X10	Y10	Z10	X11	Y11	Z11	X12	Y12	Z12	X13	Y13	Z13	X14	Y14	Z14	X15	Y15	Z15	X16	Y16	Z16	X17	Y17	Z17	X18	Y18	Z18	X19	Y19	Z19	X20	Y20	Z20	X21	Y21	Z21	X22	Y22	Z22
74	2.466666666666667	2.319507206085413	1.0746915116476043	0.0	2.303754068388935	1.0742108156193648	0.0	2.34775490820883	0.8643227286760197	0.0	2.3249213554716497	0.6609286623759403	0.0	2.407989973392299	0.6244655362637277	0.0	2.387481623385411	0.6106105793041193	0.0	2.2995067886784613	0.6216170560433535	0.0	2.341626606674545	1.0793562364231026	0.0	2.391870208533723	0.8826668463601346	0.0	2.446143423051779	0.6983116645358848	0.0	2.5486665679464693	0.660981553221608	0.0	2.5381999977248233	0.6695893449107599	0.0	2.4360662434289773	0.6627350688882485	0.0	2.353524383781175	1.3737893805020367	0.0	2.365376261930902	1.5130081160401183	0.0	2.4150747582679015	1.437165178074144	0.0	2.3286239332201277	1.3034701682145664	0.0	2.3453888740144198	1.1498578200045622	0.0	2.48161124894504	1.1408992151453885	0.0	2.3719582450274532	1.3533252522977448	0.0	2.4255518814994264	1.4251745349096543	0.0	2.4843910151101447	1.4942901784193006	0.0
75	2.5	2.3215294469632615	1.0736604700367876	0.0	2.305778244383048	1.0715692573509261	0.0	2.347936111636803	0.861670042580118	0.0	2.3252800477474986	0.661280676902244	0.0	2.4091285032854426	0.6236476845577497	0.0	2.3875853877249793	0.6111658021227907	0.0	2.299761382143894	0.6240986495315891	0.0	2.343223795503214	1.0768962915843767	0.0	2.4086096377276323	0.8846288305116832	0.0	2.47683565896645	0.7028432307416853	0.0	2.5826861957440537	0.6662106313209419	0.0	2.5740019359265296	0.6741735412015294	0.0	2.466870512523341	0.6668578624882845	0.0	2.3498511033525835	1.3702972192573013	0.0	2.362737651774456	1.514023870080282	0.0	2.41179282504743	1.4353995426346569	0.0	2.327906251919708	1.2996564288349792	0.0	2.3522744811883776	1.1498028179120103	0.0	2.48972838281375	1.1513642215287516	0.0	2.368180482884234	1.3543876251319193	0.0	2.4278943311261068	1.4244255496410576	0.0	2.494569685088245	1.4942603497805111	0.0
76	2.533333333333333	2.323931416631146	1.0707876520781163	0.0	2.306580810652147	1.0669555549883094	0.0	2.348165479927837	0.8594110752235694	0.0	2.3252588540098302	0.6616840833956388	0.0	2.4103004357490496	0.6240802153536343	0.0	2.38858357141606	0.6128670441127991	0.0	2.3002988513647726	0.6267667787606094	0.0	2.3459561994663556	1.0726136699329212	0.0	2.4261934288752487	0.8887340905539207	0.0	2.5015709021203185	0.7079811349675504	0.0	2.6052414986267385	0.6697819232544368	0.0	2.599380479692748	0.6777879646626992	0.0	2.492067961407807	0.6711266787735589	0.0	2.3470508740002822	1.3684573046286028	0.0	2.3618920399182595	1.5174024626146885	0.0	2.410631117023604	1.4349576715732837	0.0	2.326135528792863	1.2974986293792339	0.0	2.3562810945627497	1.151477460377042	0.0	2.4968017576775994	1.164329578995523	0.0	2.3667526504194387	1.3545254480939444	0.0	2.431507105506758	1.419471871796702	0.0	2.506569171977351	1.4872327302875261	0.0
77	2.5666666666666664	2.3269724809177483	1.0662131828610042	0.0	2.3077362803557455	1.0604844819681911	0.0	2.3486035901314497	0.8561151160383217	0.0	2.325013691776313	0.6616450763973984	0.0	2.4109501658242483	0.6260058775736734	0.0	2.3899298144084025	0.6156846519656527	0.0	2.301255582542553	0.6287388407581047	0.0	2.3505538725253188	1.067163331267446	0.0	2.44183010043665	0.89366223824997	0.0	2.5208864930176564	0.7120163031836773	0.0	2.6198936289142494	0.6715812596339686	0.0	2.6149476690423423	0.6803832983207598	0.0	2.512155916942523	0.675035409981883	0.0	2.346394172253273	1.3694926752060042	0.0	2.3622101434767218	1.5203849678340173	0.0	2.411362295982803	1.436122894306867	0.0	2.3246890190201897	1.2989187835152882	0.0	2.355861503615625	1.154810586670416	0.0	2.499731102326971	1.1778057380455622	0.0	2.366717218345171	1.3522689901563312	0.0	2.4357670930905657	1.4026015530784612	0.0	2.5177489421159693	1.4687406564337002	0.0
78	2.6	2.331439256364242	1.0630191673377285	0.0	2.3110501442362033	1.0561104339794916	0.0	2.349525247607853	0.853654585235781	0.0	2.324918740781357	0.6616441555452918	0.0	2.410963324669956	0.6277518448937812	0.0	2.390242335009425	0.6176670582120406	0.0	2.3018967647552717	0.6300654797512526	0.0	2.356919061655363	1.0642145307994662	0.0	2.453978020271462	0.8986389281896215	0.0	2.5342404452660356	0.7146670713022886	0.0	2.6291351705980883	0.6729849813020309	0.0	2.6238873368597155	0.6828713952376148	0.0	2.5256287024785147	0.6789441791135797	0.0	2.347497482242108	1.371984804384042	0.0	2.3640958926270597	1.522168655021592	0.0	2.4137186297079443	1.4381305822082677	0.0	2.3235916973696296	1.3040367315039325	0.0	2.3513605902484933	1.1596417548314435	0.0	2.4952899935292976	1.1883075674514407	0.0	2.3671784821357456	1.3480757788472513	0.0	2.4393444743118424	1.3724939174328503	0.0	2.5257936565241867	1.4360518029727571	0.0
79	2.6333333333333333	2.3373597610412733	1.0625642793770156	0.0	2.3167263826306184	1.0562404682798334	0.0	2.3511418171801317	0.8542091905536162	0.0	2.3250469102402755	0.662127099942502	0.0	2.4108754100618297	0.6280374302829588	0.0	2.389286862446546	0.6173777119842626	0.0	2.3015090925225943	0.6307158085560248	0.0	2.3642661647920145	1.065099945059818	0.0	2.4630148105132803	0.9018813026265547	0.0	2.542072907672388	0.7158666726532728	0.0	2.6336389523242545	0.6737383681965076	0.0	2.6290128445136354	0.6844521668142538	0.0	2.5326523478443597	0.6817954791900783	0.0	2.3491779255515572	1.3740183263934225	0.0	2.367214522708363	1.523624249557207	0.0	2.416912204637958	1.4395337501774181	0.0	2.3223679109426474	1.3102017279651688	0.0	2.3457183213472543	1.1648604448564033	0.0	2.484598059616158	1.1948086440547667	0.0	2.3690841766676334	1.3441813250324428	0.0	2.4408346695068492	1.333776967249993	0.0	2.5277264943977387	1.38785500495553	0.0
80	2.6666666666666665	2.343752150584087	1.0625979952323592	0.0	2.323469745856034	1.0583056580413166	0.0	2.353497822022244	0.8559086452393313	0.0	2.325273519255678	0.6625062027910088	0.0	2.410591297999516	0.6270442737807902	0.0	2.3882583725485365	0.6160876117650949	0.0	2.3007440803306025	0.6307332439697264	0.0	2.371594181712756	1.066456844785567	0.0	2.4695826271857695	0.901437748884613	0.0	2.5459998770005674	0.7145653159501479	0.0	2.634872397248231	0.6713937490632292	0.0	2.631283712114214	0.6824463431573962	0.0	2.5354497597641354	0.680964267503827	0.0	2.3507075049004817	1.3753723225516334	0.0	2.370340661337864	1.5251063153012385	0.0	2.419046665887013	1.4393348643750674	0.0	2.3207712640042284	1.3147538357574433	0.0	2.3406693702219203	1.1689272885504902	0.0	2.4721619763962774	1.1991558600587238	0.0	2.3727409920287643	1.3420025305796113	0.0	2.437697587455184	1.292156967264494	0.0	2.5200821435353244	1.328599757782962	0.0
81	2.7	2.3499047498016132	1.0614589072019696	0.0	2.329955474916694	1.0592069673286424	0.0	2.356679576849347	0.855986750228894	0.0	2.3257912476334246	0.6624077990836512	0.0	2.410015937042933	0.6255229099935479	0.0	2.3884445937660095	0.6156828001337813	0.0	2.300940911920875	0.6305781311271307	0.0	2.3784494908469127	1.0656178121931434	0.0	2.4734148018602995	0.8980287783823552	0.0	2.5471034765990854	0.7099360608385655	0.0	2.6348584866363223	0.6643297026136711	0.0	2.6311382320147803	0.6753956887607547	0.0	2.535669608895124	0.675416709772054	0.0	2.352027359363215	1.3764320214049608	0.0	2.3732688194283247	1.5261423973137598	0.0	2.419083978237772	1.4380574130534765	0.0	2.3190421389262466	1.3170297639419997	0.0	2.335526070552002	1.1710685909402196	0.0	2.4619533899651884	1.2025092530845325	0.0	2.375945157711128	1.3407483688912012	0.0	2.4266151364184583	1.2539043710032993	0.0	2.503243011317983	1.2720813435162666	0.0
82	2.7333333333333334	2.3561054457678576	1.0602704451085267	0.0	2.335387968244049	1.058952929750451	0.0	2.3604698590374893	0.8546138701184268	0.0	2.326577138479556	0.6624116874742826	0.0	2.4094873762572204	0.6236424455999658	0.0	2.3892814346190256	0.6157058527776251	0.0	2.3018479286857234	0.6305669893226201	0.0	2.384957907826387	1.0638021255960812	0.0	2.4744125752206205	0.8938450702502944	0.0	2.5450000353238935	0.7028309340944534	0.0	2.633200608351246	0.6540472780926037	0.0	2.6288002622195874	0.6648952074942012	0.0	2.5325640889990018	0.667099241348533	0.0	2.353924060651174	1.3764729133220452	0.0	2.376101997535152	1.5258800339690208	0.0	2.418784720923687	1.4370721074761585	0.0	2.3177188707083882	1.3174971217335387	0.0	2.3292498679465794	1.171919205835437	0.0	2.455236143607517	1.2039404179417603	0.0	2.378796224028906	1.3382303336268986	0.0	2.411778402938357	1.2259765171732324	0.0	2.4861781061974177	1.2331389267732893	0.0
83	2.7666666666666666	2.362399735809997	1.0601722964487423	0.0	2.3396679365593793	1.0588035274441783	0.0	2.364369748104081	0.8531960056948482	0.0	2.3270340083512093	0.6624180164216249	0.0	2.4090268662667116	0.6215561922719459	0.0	2.3891809718491066	0.6148956748997443	0.0	2.302009819642399	0.6302985037094283	0.0	2.3909277884287836	1.0629195987901923	0.0	2.473861155402511	0.8902536734034516	0.0	2.5388628205803476	0.694722793749701	0.0	2.6275764636811356	0.6436365741803723	0.0	2.623517370759976	0.6538634602938537	0.0	2.5248260440047114	0.6583626975271607	0.0	2.357178934104677	1.3748757663791602	0.0	2.3784271142269775	1.523877480226969	0.0	2.4206481383705185	1.4370748142154826	0.0	2.3170505376345463	1.3170261776014465	0.0	2.3218609676614883	1.172524153597231	0.0	2.4514762833361905	1.2025039533945427	0.0	2.3842676524622544	1.333930766880957	0.0	2.403497947978226	1.2114208907175354	0.0	2.4794387123528936	1.2150974865399793	0.0
84	2.8	2.3675544540354627	1.0606669372432582	0.0	2.3432206079760505	1.059030837602723	0.0	2.3682027402023773	0.8527401261762781	0.0	2.327072898849589	0.661897241097501	0.0	2.408736353212487	0.620276169004806	0.0	2.3881872516135676	0.6138391940891162	0.0	2.301494808355762	0.6295881718518975	0.0	2.3955111794024995	1.0631277600386855	0.0	2.4739916599879037	0.8882548539621505	0.0	2.5289170113913793	0.686967187223682	0.0	2.6169979926437614	0.6350784903802389	0.0	2.614163510350484	0.6443468201172962	0.0	2.513156950046821	0.6509331573308327	0.0	2.360965152356958	1.3729210281965467	0.0	2.381018229530224	1.520989852621166	0.0	2.4247176817856095	1.437479588102406	0.0	2.317415445355724	1.3166738147853794	0.0	2.315341840668046	1.1730620954747586	0.0	2.4501374013676944	1.1996210591112642	0.0	2.3911642769084755	1.3301069082946306	0.0	2.403760238233097	1.2068346640429477	0.0	2.4823542326180608	1.2109345793031345	0.0
